<?xml version="1.0" encoding="utf-8"?>
<!-- Generator: Adobe Illustrator 27.5.0, SVG Export Plug-In . SVG Version: 6.00 Build 0)  -->
<svg version="1.1" id="Calque_1" xmlns="http://www.w3.org/2000/svg" xmlns:xlink="http://www.w3.org/1999/xlink" x="0px" y="0px"
	 viewBox="0 0 547.2 67.1" style="enable-background:new 0 0 547.2 67.1;" xml:space="preserve">
<style type="text/css">
	.st0{fill:#FFFFFF;stroke:#FFFFFF;stroke-width:3;stroke-miterlimit:10;}
</style>
<g>
	<path class="st0" d="M2.5,35.2l9.6-0.9c0.6,3.2,1.7,5.6,3.5,7.1s4.1,2.3,7.1,2.3c3.2,0,5.6-0.7,7.2-2s2.4-2.9,2.4-4.7
		c0-1.2-0.3-2.1-1-2.9c-0.7-0.8-1.9-1.5-3.5-2.1c-1.2-0.4-3.8-1.1-7.9-2.1c-5.3-1.3-9-2.9-11.1-4.8c-3-2.7-4.5-5.9-4.5-9.8
		c0-2.5,0.7-4.8,2.1-7c1.3-2.3,3.4-3.9,6-5.1C15,2.1,18.2,1.5,22,1.5c6.1,0,10.7,1.3,13.8,4s4.7,6.3,4.9,10.7l-9.8,0.4
		c-0.4-2.5-1.3-4.3-2.7-5.4c-1.4-1.1-3.5-1.6-6.2-1.6c-2.9,0-5.1,0.6-6.7,1.8c-1,0.8-1.6,1.8-1.6,3s0.5,2.1,1.5,3
		c1.2,1,4.2,2.1,9,3.3s8.3,2.3,10.6,3.5c2.3,1.2,4.1,2.9,5.4,4.9s1.9,4.7,1.9,7.8c0,2.8-0.8,5.4-2.3,7.8c-1.5,2.4-3.7,4.2-6.6,5.4
		c-2.8,1.2-6.4,1.8-10.6,1.8c-6.2,0-10.9-1.4-14.2-4.3C5.1,44.8,3.1,40.6,2.5,35.2z"/>
	<path class="st0" d="M56.8,51L45.7,15.8h9.1l6.6,23.1l6.1-23.1h9l5.9,23.1L89,15.8h9.2L86.9,51h-9l-6.1-22.7l-6,22.7H56.8z"/>
	<path class="st0" d="M103.1,11V2.4h9.3V11H103.1z M103.1,51V15.8h9.3V51H103.1z"/>
	<path class="st0" d="M118.7,41l9.4-1.4c0.4,1.8,1.2,3.2,2.4,4.1c1.2,0.9,2.9,1.4,5.1,1.4c2.4,0,4.2-0.4,5.4-1.3
		c0.8-0.6,1.2-1.4,1.2-2.5c0-0.7-0.2-1.3-0.7-1.8c-0.5-0.4-1.5-0.9-3.1-1.2c-7.5-1.7-12.3-3.2-14.3-4.5c-2.8-1.9-4.2-4.5-4.2-7.9
		c0-3.1,1.2-5.6,3.6-7.7s6.2-3.1,11.2-3.1c4.8,0,8.4,0.8,10.8,2.4c2.3,1.6,4,3.9,4.8,7l-8.8,1.6c-0.4-1.4-1.1-2.4-2.1-3.2
		c-1.1-0.7-2.6-1.1-4.5-1.1c-2.5,0-4.2,0.3-5.3,1c-0.7,0.5-1.1,1.1-1.1,1.9c0,0.7,0.3,1.2,0.9,1.7c0.8,0.6,3.7,1.5,8.7,2.6
		s8.4,2.5,10.4,4.2c1.9,1.7,2.9,4,2.9,6.9c0,3.2-1.4,6-4.1,8.3c-2.7,2.3-6.7,3.5-12,3.5c-4.8,0-8.6-1-11.4-2.9
		C121.4,47,119.6,44.3,118.7,41z"/>
	<path class="st0" d="M156.6,41l9.4-1.4c0.4,1.8,1.2,3.2,2.4,4.1c1.2,0.9,2.9,1.4,5.1,1.4c2.4,0,4.2-0.4,5.4-1.3
		c0.8-0.6,1.2-1.4,1.2-2.5c0-0.7-0.2-1.3-0.7-1.8c-0.5-0.4-1.5-0.9-3.1-1.2c-7.5-1.7-12.3-3.2-14.3-4.5c-2.8-1.9-4.2-4.5-4.2-7.9
		c0-3.1,1.2-5.6,3.6-7.7c2.4-2.1,6.2-3.1,11.2-3.1c4.8,0,8.4,0.8,10.8,2.4c2.3,1.6,4,3.9,4.8,7l-8.8,1.6c-0.4-1.4-1.1-2.4-2.1-3.2
		c-1.1-0.7-2.6-1.1-4.5-1.1c-2.5,0-4.2,0.3-5.3,1c-0.7,0.5-1.1,1.1-1.1,1.9c0,0.7,0.3,1.2,0.9,1.7c0.8,0.6,3.7,1.5,8.7,2.6
		s8.4,2.5,10.4,4.2c1.9,1.7,2.9,4,2.9,6.9c0,3.2-1.4,6-4.1,8.3c-2.7,2.3-6.7,3.5-12,3.5c-4.8,0-8.6-1-11.4-2.9
		C159.2,47,157.4,44.3,156.6,41z"/>
	<path class="st0" d="M197.7,2.4h18c4.1,0,7.1,0.3,9.3,0.9c2.9,0.8,5.3,2.3,7.3,4.5c2,2.1,3.6,4.8,4.6,7.9c1.1,3.1,1.6,6.9,1.6,11.5
		c0,4-0.5,7.5-1.5,10.4c-1.2,3.5-3,6.4-5.2,8.6c-1.7,1.7-4,3-6.9,3.9c-2.2,0.7-5.1,1-8.7,1h-18.5L197.7,2.4L197.7,2.4z M207.5,10.6
		v32.2h7.3c2.7,0,4.7-0.2,5.9-0.5c1.6-0.4,2.9-1.1,4-2c1.1-1,1.9-2.5,2.6-4.7c0.7-2.2,1-5.2,1-8.9c0-3.8-0.3-6.7-1-8.7
		s-1.6-3.6-2.8-4.7s-2.7-1.9-4.5-2.3c-1.4-0.3-4.1-0.5-8.1-0.5L207.5,10.6L207.5,10.6z"/>
	<path class="st0" d="M267.2,39.8l9.3,1.6c-1.2,3.4-3.1,6-5.7,7.8s-5.8,2.7-9.7,2.7c-6.1,0-10.7-2-13.6-6c-2.3-3.2-3.5-7.3-3.5-12.2
		c0-5.8,1.5-10.4,4.6-13.7s6.9-5,11.6-5c5.2,0,9.4,1.7,12.4,5.2s4.5,8.8,4.3,15.9h-23.4c0.1,2.8,0.8,4.9,2.3,6.5
		c1.4,1.5,3.2,2.3,5.4,2.3c1.5,0,2.7-0.4,3.7-1.2S266.7,41.6,267.2,39.8z M267.7,30.4c-0.1-2.7-0.8-4.8-2.1-6.2
		c-1.3-1.4-2.9-2.1-4.8-2.1c-2,0-3.7,0.7-5,2.2c-1.3,1.5-2,3.5-2,6L267.7,30.4L267.7,30.4z"/>
	<path class="st0" d="M281.3,41l9.4-1.4c0.4,1.8,1.2,3.2,2.4,4.1c1.2,0.9,2.9,1.4,5.1,1.4c2.4,0,4.2-0.4,5.4-1.3
		c0.8-0.6,1.2-1.4,1.2-2.5c0-0.7-0.2-1.3-0.7-1.8c-0.5-0.4-1.5-0.9-3.1-1.2c-7.5-1.7-12.3-3.2-14.3-4.5c-2.8-1.9-4.2-4.5-4.2-7.9
		c0-3.1,1.2-5.6,3.6-7.7s6.2-3.1,11.2-3.1c4.8,0,8.4,0.8,10.8,2.4c2.3,1.6,4,3.9,4.8,7l-8.8,1.6c-0.4-1.4-1.1-2.4-2.1-3.2
		c-1.1-0.7-2.6-1.1-4.5-1.1c-2.5,0-4.2,0.3-5.3,1c-0.7,0.5-1.1,1.1-1.1,1.9c0,0.7,0.3,1.2,0.9,1.7c0.8,0.6,3.7,1.5,8.7,2.6
		s8.4,2.5,10.4,4.2c1.9,1.7,2.9,4,2.9,6.9c0,3.2-1.4,6-4.1,8.3s-6.7,3.5-12,3.5c-4.8,0-8.6-1-11.4-2.9C284,47,282.2,44.3,281.3,41z"
		/>
	<path class="st0" d="M322.4,11V2.4h9.3V11H322.4z M322.4,51V15.8h9.3V51H322.4z"/>
	<path class="st0" d="M340.4,53.4l10.7,1.3c0.2,1.2,0.6,2.1,1.2,2.6c0.9,0.7,2.3,1,4.2,1c2.4,0,4.3-0.4,5.5-1.1
		c0.8-0.5,1.4-1.3,1.9-2.4c0.3-0.8,0.4-2.2,0.4-4.3v-5.1c-2.8,3.8-6.3,5.7-10.6,5.7c-4.7,0-8.5-2-11.3-6c-2.2-3.2-3.3-7.1-3.3-11.8
		c0-5.9,1.4-10.4,4.3-13.5c2.8-3.1,6.4-4.7,10.6-4.7c4.4,0,8,1.9,10.8,5.7v-4.9h8.7v31.6c0,4.2-0.3,7.3-1,9.3
		c-0.7,2.1-1.6,3.7-2.9,4.8c-1.2,1.2-2.9,2.1-5,2.8c-2.1,0.7-4.7,1-7.9,1c-6,0-10.2-1-12.7-3.1c-2.5-2-3.8-4.6-3.8-7.8
		C340.4,54.2,340.4,53.8,340.4,53.4z M348.8,32.7c0,3.7,0.7,6.5,2.2,8.2c1.4,1.7,3.2,2.6,5.4,2.6c2.3,0,4.2-0.9,5.8-2.7
		c1.6-1.8,2.4-4.4,2.4-7.9c0-3.7-0.8-6.4-2.3-8.1c-1.5-1.8-3.4-2.7-5.7-2.7c-2.2,0-4.1,0.9-5.5,2.6
		C349.5,26.5,348.8,29.1,348.8,32.7z"/>
	<path class="st0" d="M414.9,51h-9.3V33c0-3.8-0.2-6.3-0.6-7.4s-1-2-1.9-2.6s-2-0.9-3.2-0.9c-1.6,0-3.1,0.4-4.3,1.3
		c-1.3,0.9-2.2,2.1-2.6,3.5c-0.5,1.5-0.7,4.2-0.7,8.1v16H383V15.8h8.7V21c3.1-4,7-6,11.6-6c2.1,0,3.9,0.4,5.6,1.1s3,1.7,3.9,2.8
		c0.9,1.2,1.5,2.5,1.8,3.9c0.3,1.5,0.5,3.6,0.5,6.3V51H414.9z"/>
	<path class="st0" d="M424.5,51V2.4h33.4v8.2h-23.5v11.5h20.3v8.2h-20.3V51H424.5z"/>
	<path class="st0" d="M472.9,26.5l-8.5-1.5c1-3.4,2.6-5.9,4.9-7.6c2.3-1.6,5.8-2.5,10.4-2.5c4.2,0,7.3,0.5,9.3,1.5s3.5,2.2,4.3,3.8
		c0.8,1.5,1.2,4.3,1.2,8.4l-0.1,10.9c0,3.1,0.1,5.4,0.4,6.9s0.9,3,1.7,4.7h-9.2c-0.2-0.6-0.5-1.5-0.9-2.8c-0.2-0.6-0.3-0.9-0.3-1.1
		c-1.6,1.5-3.3,2.7-5.1,3.5c-1.8,0.8-3.8,1.2-5.8,1.2c-3.6,0-6.5-1-8.6-3s-3.1-4.5-3.1-7.5c0-2,0.5-3.8,1.4-5.3c1-1.6,2.3-2.8,4-3.6
		s4.2-1.6,7.4-2.2c4.4-0.8,7.4-1.6,9.1-2.3v-0.9c0-1.8-0.4-3.1-1.3-3.8c-0.9-0.8-2.6-1.1-5-1.1c-1.7,0-3,0.3-3.9,1
		C474.2,23.7,473.5,24.9,472.9,26.5z M485.4,34.1c-1.2,0.4-3.1,0.9-5.7,1.4c-2.6,0.6-4.3,1.1-5.1,1.6c-1.2,0.9-1.8,2-1.8,3.3
		s0.5,2.4,1.5,3.4s2.2,1.4,3.7,1.4c1.7,0,3.3-0.6,4.8-1.7c1.1-0.8,1.9-1.9,2.2-3.1c0.2-0.8,0.4-2.3,0.4-4.5V34.1z"/>
	<path class="st0" d="M503.7,11V2.4h9.3V11H503.7z M503.7,51V15.8h9.3V51H503.7z"/>
	<path class="st0" d="M531.5,51h-9.3V15.8h8.7v5c1.5-2.4,2.8-3.9,4-4.7c1.2-0.8,2.5-1.1,4-1.1c2.1,0,4.2,0.6,6.1,1.8l-2.9,8.1
		c-1.6-1-3-1.5-4.4-1.5c-1.3,0-2.4,0.4-3.3,1.1c-0.9,0.7-1.6,2-2.1,3.9s-0.8,5.8-0.8,11.8V51z"/>
</g>
</svg>
